# xmcd CD database file
#
# Track frame offsets:
#	150
#	24175
#	51860
#
# Disc length: 1010 seconds
#
# Revision: 5
# Processed by: cddbd v1.5PL3 Copyright (c) Steve Scherf et al.
# Submitted via: CDex 1.40Release
#
DISCID=1903f003
DTITLE=浅倉大介Pred.AXS - COSMIC RUNAWAY
DYEAR=1995
DGENRE=JPop
TTITLE0=COSMIC RUNAWAY
TTITLE1=TOY BOX IN THE MORNING
TTITLE2=COSMIC RUNAWAY(INSTRUMENTAL MIX)
EXTD=
EXTT0=
EXTT1=
EXTT2=
PLAYORDER=
